<?xml version="1.0" encoding="utf-8"?>
<!-- Generator: Adobe Illustrator 23.0.1, SVG Export Plug-In . SVG Version: 6.00 Build 0)  -->
<svg version="1.1" id="Layer_1" xmlns="http://www.w3.org/2000/svg" xmlns:xlink="http://www.w3.org/1999/xlink" x="0px" y="0px"
	 viewBox="0 0 444 102" style="enable-background:new 0 0 444 102;" xml:space="preserve">
<style type="text/css">
	.st0{fill:none;stroke:#FFFFFF;stroke-width:0.9892;stroke-dasharray:5.9352,3.9568;}
</style>
<g>
	<path class="st0" d="M93.21,21.31c1.61,0,3.15,0.14,4.64,0.43c1.48,0.29,3.17,0.68,5.07,1.16c1.9,0.48,3.53,0.85,4.88,1.11
		c-1.61,11.4-2.54,17.1-2.8,17.1h-1.35c-0.45,0-0.81-0.03-1.06-0.1c-0.26-0.06-0.5-0.21-0.72-0.43c-0.23-0.22-0.34-0.59-0.34-1.11
		c0-1.03-0.16-2.22-0.48-3.57c-0.32-1.35-0.82-2.74-1.5-4.15c-0.68-1.42-1.66-2.61-2.95-3.57c-1.29-0.97-2.74-1.45-4.35-1.45
		c-1.68,0-3.14,0.39-4.4,1.16s-2.21,1.74-2.85,2.9c-0.64,1.16-1.11,2.24-1.4,3.24c-0.29,1-0.43,1.88-0.43,2.66
		c0,0.58,0.06,1.14,0.19,1.69c0.13,0.55,0.34,1.1,0.63,1.64c0.29,0.55,0.56,1.05,0.82,1.5c0.26,0.45,0.66,0.95,1.21,1.5
		c0.55,0.55,0.98,1,1.3,1.35c0.32,0.36,0.84,0.82,1.55,1.4c0.71,0.58,1.21,1,1.5,1.26c0.29,0.26,0.84,0.71,1.64,1.35
		c0.8,0.65,1.34,1.06,1.59,1.26c0.45,0.32,1.34,0.98,2.66,1.98c1.32,1,2.25,1.76,2.8,2.27c0.55,0.52,1.26,1.29,2.13,2.32
		c0.87,1.03,1.46,2.19,1.79,3.48c0.32,1.29,0.48,2.74,0.48,4.35c0,3.67-0.76,7.04-2.27,10.09c-1.51,3.06-3.46,5.49-5.84,7.29
		c-2.38,1.8-4.91,3.19-7.58,4.15c-2.67,0.97-5.3,1.45-7.87,1.45c-4.25,0-9.56-0.84-15.94-2.51c0.32-2.77,0.48-5.6,0.48-8.5
		c0-1.03-0.03-3.54-0.1-7.53c0-0.51,0.77-0.77,2.32-0.77c0.26,0,0.68,0.08,1.26,0.24c0.58,0.16,0.93,0.34,1.06,0.53
		c0,2.96,0.97,5.88,2.9,8.74c1.93,2.87,4.38,4.3,7.34,4.3c1.8,0,3.41-0.37,4.83-1.11c1.42-0.74,2.5-1.61,3.24-2.61
		c0.74-1,1.35-2.09,1.84-3.28c0.48-1.19,0.79-2.17,0.92-2.95c0.13-0.77,0.19-1.38,0.19-1.84c0-1.22-0.4-2.48-1.21-3.77
		c-0.81-1.29-1.58-2.28-2.32-2.99c-0.74-0.71-1.93-1.72-3.57-3.04c-1.64-1.32-2.62-2.11-2.95-2.37c-0.19-0.13-0.72-0.56-1.59-1.3
		c-0.87-0.74-1.42-1.21-1.64-1.4c-0.23-0.19-0.71-0.63-1.45-1.3c-0.74-0.68-1.22-1.17-1.45-1.5c-0.23-0.32-0.61-0.8-1.16-1.45
		c-0.55-0.64-0.92-1.22-1.11-1.74c-0.19-0.51-0.43-1.13-0.72-1.84c-0.29-0.71-0.48-1.42-0.58-2.13c-0.1-0.71-0.14-1.48-0.14-2.32
		c0-3.09,0.74-6,2.22-8.74c1.48-2.74,3.38-4.99,5.7-6.76c2.32-1.77,4.8-3.17,7.44-4.2C88.31,21.83,90.82,21.31,93.21,21.31z"/>
	<path class="st0" d="M117.55,85.84c-2.19,0-4.48,0.1-6.86,0.29c-2.38,0.19-3.93,0.29-4.64,0.29c-0.13-0.13-0.19-0.42-0.19-0.87
		c0-0.39,0.05-0.77,0.14-1.16c0.1-0.39,0.21-0.69,0.34-0.92c0.13-0.22,0.23-0.34,0.29-0.34c0.64,0,1.67-0.26,3.09-0.77
		c1.42-0.51,2.29-1.06,2.61-1.64c0.77-1.35,1.58-4.18,2.42-8.5l7.05-36.52c0.71-4.12,1.03-6.63,0.97-7.53
		c-0.06-0.51-0.76-1.11-2.08-1.79c-1.32-0.68-2.27-1.01-2.85-1.01c-0.13,0-0.19-0.22-0.19-0.68c0-1.29,0.23-2.16,0.68-2.61
		c5.15,0.19,9.37,0.29,12.65,0.29c3.41,0,8.24-0.08,14.49-0.24c6.25-0.16,11.11-0.24,14.59-0.24c-0.13,1.93-0.19,4.86-0.19,8.79
		v5.51c-0.32,0.32-1.03,0.48-2.13,0.48c-0.71,0-1.1-0.22-1.16-0.68c-0.71-2.45-2.11-4.54-4.2-6.28c-2.09-1.74-4.3-2.61-6.62-2.61
		h-3.38c-2.06,0-3.54,0.08-4.44,0.24c-0.9,0.16-1.45,0.5-1.64,1.01c-0.77,2.13-1.42,4.64-1.93,7.53l-2.9,14.88
		c-0.06,0.19,0.26,0.34,0.97,0.43c0.71,0.1,1.64,0.14,2.8,0.14h7.63c1.42,0,2.38-0.27,2.9-0.82c0.51-0.55,1.42-2.27,2.7-5.17
		c0.19-0.45,0.71-0.68,1.55-0.68c1.03,0,1.64,0.16,1.84,0.48l-3.48,18.26c-0.26,0.26-0.93,0.39-2.03,0.39
		c-0.71,0-1.13-0.26-1.26-0.77c-0.13-2.9-0.48-4.64-1.06-5.22c-0.77-0.77-3.19-1.16-7.25-1.16c-4.32,0-6.54,0.29-6.67,0.87
		l-2.8,14.88c-0.52,2.58-0.77,4.48-0.77,5.7c0,1.16,0.3,1.9,0.92,2.22c0.61,0.32,2.27,0.48,4.98,0.48h2.32
		c3.73,0,7.28-0.84,10.63-2.51c1.09-0.58,2.45-1.67,4.06-3.28c1.61-1.61,2.96-3.41,4.06-5.41c0.19-0.39,0.64-0.58,1.35-0.58
		c1.48,0,2.35,0.19,2.61,0.58c-0.26,0.52-0.97,1.85-2.13,4.01c-1.16,2.16-2,3.77-2.51,4.83c-0.52,1.06-1.14,2.38-1.88,3.96
		c-0.74,1.58-1.27,2.85-1.59,3.82c-3.41,0-8.92-0.06-16.52-0.19C125.21,85.91,120.12,85.84,117.55,85.84z"/>
	<path class="st0" d="M195.89,22.08c1.87,0,3.77,0.24,5.7,0.72c1.93,0.48,3.85,1.21,5.75,2.17c1.9,0.97,3.46,2.37,4.69,4.2
		c1.22,1.84,1.84,3.95,1.84,6.33c0,3.99-1.42,7.97-4.25,11.93c-2.83,3.96-6.25,6.62-10.24,7.97c-0.32,0.13-0.39,0.45-0.19,0.97
		c3.03,8.95,6.54,15.94,10.53,20.96c3.09,3.93,6.12,5.89,9.08,5.89c0,1.16-0.32,2.22-0.97,3.19c-0.9,0.13-2.06,0.19-3.48,0.19
		c-1.48,0-2.9-0.1-4.25-0.29c-1.35-0.19-2.53-0.4-3.53-0.63c-1-0.22-2-0.61-2.99-1.16c-1-0.55-1.8-1-2.42-1.35
		c-0.61-0.35-1.27-0.97-1.98-1.84c-0.71-0.87-1.24-1.5-1.59-1.88c-0.35-0.39-0.82-1.11-1.4-2.17c-0.58-1.06-0.97-1.79-1.16-2.17
		c-0.19-0.39-0.56-1.16-1.11-2.32c-0.55-1.16-0.89-1.9-1.01-2.22c-3.09-6.63-5.12-10.46-6.09-11.5c-0.84-0.9-1.87-1.35-3.09-1.35
		c-0.32,0-0.53,0.02-0.63,0.05c-0.1,0.03-0.26,0.16-0.48,0.39c-0.23,0.23-0.37,0.6-0.43,1.11l-2.61,13.33
		c-0.64,3.35-0.97,5.93-0.97,7.73c0,0.65,0.63,1.27,1.88,1.88c1.26,0.61,2.17,0.92,2.75,0.92c0.13,0,0.19,0.16,0.19,0.48
		c0,1.22-0.23,2.16-0.68,2.8c-0.77-0.06-2-0.16-3.67-0.29c-1.68-0.13-3.24-0.22-4.69-0.29c-1.45-0.06-2.75-0.1-3.91-0.1
		c-1.61,0-3.85,0.1-6.71,0.29c-2.87,0.19-4.69,0.32-5.46,0.39c-0.06-0.06-0.1-0.26-0.1-0.58c0-0.45,0.06-1.01,0.19-1.69
		c0.13-0.68,0.26-1.01,0.39-1.01c0.71,0,1.75-0.21,3.14-0.63c1.38-0.42,2.24-0.92,2.56-1.5c1.03-1.67,1.84-4.35,2.42-8.02
		l7.34-37.48c0.58-3.28,0.87-5.57,0.87-6.86c0-0.97-0.6-1.75-1.79-2.37c-1.19-0.61-2.17-0.92-2.95-0.92c-0.13,0-0.19-0.16-0.19-0.48
		c0-0.45,0.1-1,0.29-1.64c0.19-0.64,0.35-1.03,0.48-1.16c6.76,0.32,10.85,0.48,12.27,0.48c1.74,0,3.83-0.08,6.28-0.24
		C191.96,22.17,194.09,22.08,195.89,22.08z M193.86,27.4c-2.38,0-3.93,0.14-4.64,0.43c-0.71,0.29-1.16,0.95-1.35,1.98l-3.86,20
		c-0.06,0.19-0.1,0.42-0.1,0.68c0,0.84,0.45,1.37,1.35,1.59c0.9,0.23,2.48,0.34,4.73,0.34c2.13,0,3.98-0.93,5.55-2.8
		c1.58-1.87,2.7-4.06,3.38-6.57c0.68-2.51,1.01-5.09,1.01-7.73c0-2.64-0.55-4.62-1.64-5.94C197.21,28.06,195.73,27.4,193.86,27.4z"
		/>
	<path class="st0" d="M276.96,64.2c0,6.44-2.51,11.69-7.53,15.75s-11.24,6.09-18.64,6.09c-0.06,0-2.53-0.03-7.39-0.1
		c-4.86-0.06-7.36-0.1-7.49-0.1c-2.19,0-4.48,0.1-6.86,0.29c-2.38,0.19-3.93,0.29-4.64,0.29c-0.13-0.13-0.19-0.42-0.19-0.87
		c0-0.39,0.05-0.77,0.14-1.16c0.1-0.39,0.21-0.69,0.34-0.92c0.13-0.22,0.23-0.34,0.29-0.34c0.64,0,1.67-0.26,3.09-0.77
		c1.42-0.51,2.29-1.06,2.61-1.64c0.77-1.35,1.58-4.18,2.42-8.5l7.05-36.52c0.71-4.12,1.03-6.63,0.97-7.53
		c-0.06-0.51-0.76-1.11-2.08-1.79c-1.32-0.68-2.27-1.01-2.85-1.01c-0.13,0-0.19-0.22-0.19-0.68c0-1.29,0.23-2.16,0.68-2.61
		c4.44,0.19,8.66,0.29,12.65,0.29c3.8,0,6.97-0.03,9.52-0.1c2.54-0.06,4.01-0.1,4.4-0.1c2,0,3.96,0.26,5.89,0.77
		c1.93,0.52,3.75,1.3,5.46,2.37c1.71,1.06,3.09,2.51,4.15,4.35s1.59,3.95,1.59,6.33c0,1.22-0.13,2.4-0.39,3.53
		c-0.26,1.13-0.6,2.16-1.01,3.09c-0.42,0.94-0.89,1.82-1.4,2.66c-0.52,0.84-1.08,1.58-1.69,2.22c-0.61,0.65-1.21,1.24-1.79,1.79
		c-0.58,0.55-1.14,1.01-1.69,1.4c-0.55,0.39-1.03,0.71-1.45,0.97c-0.42,0.26-0.85,0.52-1.3,0.77c1.67,0.32,3.32,1.55,4.93,3.67
		C276.16,58.21,276.96,60.92,276.96,64.2z M263.34,64.4c0-5.86-2.96-8.79-8.89-8.79c-3.74,0-5.67,0.45-5.8,1.35l-4.25,21.74v0.39
		c0,0.39,0.16,0.69,0.48,0.92c0.32,0.23,0.98,0.4,1.98,0.53c1,0.13,2.5,0.19,4.49,0.19c1.61,0,3.09-0.29,4.44-0.87
		c1.87-0.77,3.59-2.46,5.17-5.07C262.55,72.17,263.34,68.71,263.34,64.4z M266.82,34.93c0-2.7-0.58-4.62-1.74-5.75
		c-1.16-1.13-2.93-1.69-5.31-1.69c-1.87,0-3.24,0.1-4.11,0.29s-1.4,0.61-1.59,1.26l-3.86,19.8c-0.19,0.9,1.29,1.35,4.44,1.35
		c3.73,0,6.7-1.26,8.89-3.77C265.72,43.92,266.82,40.09,266.82,34.93z"/>
	<path class="st0" d="M309.28,35.9l-7.05,36.71c-0.64,3.35-0.97,5.93-0.97,7.73c0,0.65,0.63,1.27,1.88,1.88
		c1.26,0.61,2.17,0.92,2.75,0.92c0.13,0,0.19,0.16,0.19,0.48c0,1.22-0.23,2.16-0.68,2.8c-0.26,0-1.87-0.11-4.83-0.34
		c-2.96-0.22-5.22-0.34-6.76-0.34c-1.61,0-4.01,0.11-7.2,0.34c-3.19,0.23-5.07,0.34-5.65,0.34c-0.06-0.06-0.1-0.26-0.1-0.58
		c0-0.45,0.06-1.01,0.19-1.69c0.13-0.68,0.26-1.01,0.39-1.01c0.71,0,1.75-0.21,3.14-0.63c1.38-0.42,2.24-0.92,2.56-1.5
		c1.03-1.67,1.84-4.35,2.42-8.02l7.25-37.48c0.58-3.09,0.87-5.44,0.87-7.05c0-0.97-0.6-1.72-1.79-2.27
		c-1.19-0.55-2.14-0.82-2.85-0.82c-0.06,0-0.1-0.13-0.1-0.39c0-1.55,0.19-2.51,0.58-2.9c0.9,0.07,2.14,0.14,3.72,0.24
		c1.58,0.1,3.01,0.18,4.3,0.24c1.29,0.07,2.54,0.1,3.77,0.1c1.16,0,5.41-0.19,12.75-0.58v0.48c0,0.52-0.08,1.11-0.24,1.79
		c-0.16,0.68-0.34,1.01-0.53,1.01c-0.52,0-1.53,0.28-3.04,0.82c-1.51,0.55-2.4,1.05-2.66,1.5c-0.39,0.65-0.84,2-1.35,4.06
		C309.73,33.81,309.41,35.19,309.28,35.9z"/>
	<path class="st0" d="M346.28,65.46c-3.35,0-6.09,0.03-8.21,0.1c-0.19,0-0.5,0.07-0.92,0.19c-0.42,0.13-0.66,0.23-0.72,0.29
		l-4.35,7.34c-2.13,3.16-3.19,5.28-3.19,6.38c0,1.1,0.82,1.93,2.46,2.51c1.64,0.58,2.91,0.87,3.82,0.87c0.13,0,0.19,0.13,0.19,0.39
		c0,1.29-0.16,2.26-0.48,2.9c-0.77-0.06-2.19-0.19-4.25-0.39c-2.06-0.19-3.86-0.29-5.41-0.29c-1.61,0-3.69,0.1-6.23,0.29
		c-2.54,0.19-4.27,0.32-5.17,0.39c-0.06-0.13-0.1-0.39-0.1-0.77c0-1.67,0.16-2.51,0.48-2.51c0.64,0,2.03-0.47,4.15-1.4
		c2.13-0.93,3.48-1.79,4.06-2.56c0.58-0.84,1.84-2.86,3.77-6.09l26.28-43.66c0.06-0.13,0.39-0.68,0.97-1.64
		c0.58-0.97,1.03-1.69,1.35-2.17c0.32-0.48,0.76-1.09,1.3-1.84c0.55-0.74,1.05-1.29,1.5-1.64c0.45-0.35,0.87-0.53,1.26-0.53
		c0.58,0,0.97,0.26,1.16,0.77l10.14,50.04c0.26,1.68,0.71,4.09,1.35,7.25c0.19,1.03,1.03,1.87,2.51,2.51
		c1.48,0.65,2.57,0.97,3.28,0.97c0.13,0,0.19,0.16,0.19,0.48c0,1.29-0.23,2.22-0.68,2.8c-0.19,0-1.82-0.11-4.88-0.34
		c-3.06-0.22-5.36-0.34-6.91-0.34c-1.22,0-5.67,0.23-13.33,0.68c-0.06-0.06-0.1-0.29-0.1-0.68c0-1.74,0.26-2.61,0.77-2.61
		c0.51,0,1.35-0.27,2.51-0.82c1.16-0.55,1.96-1.08,2.42-1.59c0.32-0.45,0.48-0.9,0.48-1.35c0-0.58-0.71-5.02-2.13-13.33
		c0-0.26-0.19-0.39-0.58-0.39C352.76,65.52,349.82,65.46,346.28,65.46z M347.44,59.66c2.45,0,4.6-0.06,6.47-0.19
		c0.26,0,0.39-0.16,0.39-0.48l-3.09-17.2l-10.43,17.2c-0.06,0.07-0.08,0.14-0.05,0.24c0.03,0.1,0.08,0.14,0.14,0.14
		C342.61,59.56,344.8,59.66,347.44,59.66z"/>
</g>
</svg>
