<?xml version="1.0" encoding="utf-8"?>
<!-- Generator: Adobe Illustrator 23.0.1, SVG Export Plug-In . SVG Version: 6.00 Build 0)  -->
<svg version="1.1" id="Layer_1" xmlns="http://www.w3.org/2000/svg" xmlns:xlink="http://www.w3.org/1999/xlink" x="0px" y="0px"
	 viewBox="0 0 444 102" style="enable-background:new 0 0 444 102;" xml:space="preserve">
<style type="text/css">
	.st0{fill:none;stroke:#FFFFFF;stroke-dasharray:6,4;}
</style>
<g>
	<path class="st0" d="M23.39,22.6c2.6,0,7.23-0.2,13.87-0.59c0.06,0.13,0.1,0.33,0.1,0.59c0,0.59-0.08,1.24-0.24,1.95
		c-0.16,0.72-0.34,1.07-0.54,1.07c-1.04,0-2.36,0.29-3.96,0.88c-1.6,0.59-2.49,1.46-2.69,2.64c-0.2,0.65,0.06,2.8,0.78,6.45
		l5.96,32.23l19.04-32.13c1.76-2.99,2.8-5.21,3.13-6.64c0.2-0.98-0.26-1.79-1.37-2.44c-1.11-0.65-2.57-0.98-4.39-0.98
		c-0.13,0-0.2-0.23-0.2-0.68c0-1.17,0.2-2.15,0.59-2.93c5.99,0.33,9.44,0.49,10.35,0.49c0.13,0,3.71-0.16,10.74-0.49
		c0.13,0.33,0.16,0.81,0.1,1.46c-0.26,1.37-0.46,2.05-0.59,2.05c-0.46,0-0.98,0.05-1.56,0.15s-1.37,0.31-2.34,0.63
		c-0.98,0.33-1.97,0.91-2.98,1.76c-1.01,0.85-1.87,1.89-2.59,3.13L32.86,84.02c-0.72,1.11-1.51,1.99-2.39,2.64s-1.61,0.98-2.2,0.98
		c-0.91,0-1.53-0.42-1.86-1.27l-8.98-49.51c-0.13-0.78-0.39-2.11-0.78-4c-0.39-1.89-0.62-3.22-0.68-4c-0.2-1.11-1.03-1.92-2.49-2.44
		c-1.46-0.52-2.62-0.78-3.47-0.78c-0.2,0-0.29-0.29-0.29-0.88c0-1.04,0.26-1.95,0.78-2.73C17.72,22.4,22.02,22.6,23.39,22.6z"/>
	<path class="st0" d="M94.7,35.98l-7.13,37.11c-0.65,3.39-0.98,5.99-0.98,7.81c0,0.65,0.63,1.29,1.9,1.9
		c1.27,0.62,2.2,0.93,2.78,0.93c0.13,0,0.2,0.16,0.2,0.49c0,1.24-0.23,2.18-0.68,2.83c-0.26,0-1.89-0.11-4.88-0.34
		c-3-0.23-5.27-0.34-6.84-0.34c-1.63,0-4.05,0.11-7.28,0.34s-5.13,0.34-5.71,0.34c-0.06-0.07-0.1-0.26-0.1-0.59
		c0-0.45,0.07-1.03,0.2-1.71c0.13-0.68,0.26-1.03,0.39-1.03c0.72,0,1.77-0.21,3.17-0.63c1.4-0.42,2.26-0.93,2.59-1.51
		c1.04-1.69,1.86-4.39,2.44-8.11l7.32-37.89c0.59-3.13,0.88-5.5,0.88-7.13c0-0.98-0.6-1.74-1.81-2.29
		c-1.21-0.55-2.17-0.83-2.88-0.83c-0.07,0-0.1-0.13-0.1-0.39c0-1.56,0.2-2.54,0.59-2.93c0.91,0.07,2.16,0.15,3.76,0.24
		c1.59,0.1,3.04,0.18,4.35,0.24c1.3,0.07,2.57,0.1,3.81,0.1c1.17,0,5.47-0.2,12.89-0.59v0.49c0,0.52-0.08,1.12-0.24,1.81
		c-0.16,0.68-0.34,1.03-0.54,1.03c-0.52,0-1.55,0.28-3.08,0.83c-1.53,0.55-2.43,1.06-2.69,1.51c-0.39,0.65-0.85,2.02-1.37,4.1
		C95.15,33.86,94.83,35.26,94.7,35.98z"/>
	<path class="st0" d="M112.96,86.46c-2.21,0-4.53,0.1-6.93,0.29c-2.41,0.2-3.97,0.29-4.69,0.29c-0.13-0.13-0.2-0.42-0.2-0.88
		c0-0.39,0.05-0.78,0.15-1.17s0.21-0.7,0.34-0.93c0.13-0.23,0.23-0.34,0.29-0.34c0.65,0,1.69-0.26,3.13-0.78
		c1.43-0.52,2.31-1.07,2.64-1.66c0.78-1.37,1.59-4.23,2.44-8.59l7.13-36.91c0.72-4.17,1.04-6.7,0.98-7.62
		c-0.07-0.52-0.77-1.12-2.1-1.81c-1.33-0.68-2.29-1.03-2.88-1.03c-0.13,0-0.2-0.23-0.2-0.68c0-1.3,0.23-2.18,0.68-2.64
		c5.21,0.2,9.47,0.29,12.79,0.29c3.45,0,8.33-0.08,14.65-0.24c6.31-0.16,11.23-0.24,14.75-0.24c-0.13,1.95-0.2,4.92-0.2,8.89v5.57
		c-0.33,0.33-1.04,0.49-2.15,0.49c-0.72,0-1.11-0.23-1.17-0.68c-0.72-2.47-2.13-4.59-4.25-6.35c-2.12-1.76-4.35-2.64-6.69-2.64
		h-3.42c-2.08,0-3.58,0.08-4.49,0.24c-0.91,0.16-1.46,0.5-1.66,1.03c-0.78,2.15-1.43,4.69-1.95,7.62l-2.93,15.04
		c-0.07,0.2,0.26,0.34,0.98,0.44c0.72,0.1,1.66,0.15,2.83,0.15h7.71c1.43,0,2.41-0.28,2.93-0.83c0.52-0.55,1.43-2.29,2.73-5.22
		c0.2-0.45,0.72-0.68,1.56-0.68c1.04,0,1.66,0.16,1.86,0.49l-3.52,18.46c-0.26,0.26-0.94,0.39-2.05,0.39
		c-0.72,0-1.14-0.26-1.27-0.78c-0.13-2.93-0.49-4.69-1.07-5.27c-0.78-0.78-3.22-1.17-7.32-1.17c-4.36,0-6.61,0.29-6.74,0.88
		l-2.83,15.04c-0.52,2.6-0.78,4.53-0.78,5.76c0,1.17,0.31,1.92,0.93,2.25c0.62,0.33,2.29,0.49,5.03,0.49h2.34
		c3.77,0,7.36-0.85,10.74-2.54c1.11-0.59,2.47-1.69,4.1-3.32c1.63-1.63,2.99-3.45,4.1-5.47c0.2-0.39,0.65-0.59,1.37-0.59
		c1.5,0,2.38,0.2,2.64,0.59c-0.26,0.52-0.98,1.87-2.15,4.05c-1.17,2.18-2.02,3.81-2.54,4.88c-0.52,1.07-1.16,2.41-1.9,4
		c-0.75,1.6-1.29,2.88-1.61,3.86c-3.45,0-9.02-0.07-16.7-0.2C120.71,86.53,115.56,86.46,112.96,86.46z"/>
	<path class="st0" d="M174.5,73.48l6.84-35.35c0.85-4.36,1.27-6.97,1.27-7.81c0-1.3-0.42-2.11-1.27-2.44
		c-0.85-0.33-2.87-0.49-6.05-0.49c-2.48,0-4.66,0.73-6.54,2.2c-1.89,1.46-3.58,3.92-5.08,7.37c-0.2,0.33-0.52,0.49-0.98,0.49
		c-0.39,0-0.88-0.08-1.46-0.24c-0.59-0.16-0.91-0.31-0.98-0.44l4.79-15.92c2.47,0.72,4.49,1.07,6.05,1.07c2.54,0,5.83,0.1,9.86,0.29
		c4.04,0.2,7.32,0.29,9.86,0.29s5.89-0.1,10.06-0.29c4.17-0.2,7.52-0.29,10.06-0.29c1.5,0,3.68-0.36,6.54-1.07L216,36.85
		c-0.13,0.13-0.52,0.28-1.17,0.44c-0.65,0.16-1.17,0.24-1.56,0.24c-0.52,0-0.78-0.16-0.78-0.49c-0.13-3.45-0.88-5.92-2.25-7.42
		c-1.37-1.5-3.26-2.25-5.66-2.25c-2.21,0-3.94,0.1-5.18,0.29c-1.24,0.2-1.99,0.41-2.25,0.63c-0.26,0.23-0.46,0.5-0.59,0.83
		c-0.91,2.02-1.73,4.92-2.44,8.69l-6.84,35.25c-0.65,3.39-0.98,5.99-0.98,7.81c0,0.65,0.63,1.29,1.9,1.9
		c1.27,0.62,2.2,0.93,2.78,0.93c0.13,0,0.2,0.16,0.2,0.49c0,1.24-0.23,2.18-0.68,2.83c-0.78-0.07-2-0.16-3.66-0.29
		s-3.21-0.23-4.64-0.29c-1.43-0.06-2.73-0.1-3.91-0.1c-1.63,0-3.94,0.1-6.93,0.29c-3,0.2-4.85,0.33-5.57,0.39
		c-0.07-0.07-0.1-0.26-0.1-0.59c0-0.45,0.06-1.03,0.2-1.71c0.13-0.68,0.26-1.03,0.39-1.03c0.72,0,1.77-0.21,3.17-0.63
		c1.4-0.42,2.26-0.93,2.59-1.51C173.04,79.89,173.85,77.19,174.5,73.48z"/>
	<path class="st0" d="M238.41,22.5c3.52,0,6.54-0.16,9.08-0.49c0.59,2.21,1.97,5.4,4.15,9.57c2.18,4.17,5.01,9.31,8.5,15.43
		c3.48,6.12,6.23,11.17,8.25,15.14c0.13-0.39,0.45-1.72,0.98-4l4.3-22.66c0.39-2.15,0.59-3.91,0.59-5.27s-1.03-2.52-3.08-3.47
		c-2.05-0.94-3.63-1.42-4.74-1.42c-0.13,0-0.2-0.23-0.2-0.68c0-1.37,0.2-2.25,0.59-2.64c6.84,0.33,11.07,0.49,12.7,0.49
		c2.02,0,6.05-0.16,12.11-0.49c0,2.21-0.26,3.32-0.78,3.32c-0.46,0-1.11,0.07-1.95,0.2c-0.85,0.13-2,0.49-3.47,1.07
		s-2.62,1.33-3.47,2.25c-1.04,1.04-1.92,3.42-2.64,7.13l-7.23,37.11c-0.52,2.67-1.27,7.23-2.25,13.67
		c-0.26,0.26-1.04,0.39-2.34,0.39c-0.72,0-1.53-0.75-2.44-2.25l-27.05-49.41l-7.23,37.4c-0.52,2.6-0.78,4.39-0.78,5.37
		c0,1.04,0.36,1.95,1.07,2.73c0.72,0.78,1.58,1.35,2.59,1.71c1.01,0.36,1.87,0.62,2.59,0.78c0.72,0.16,1.24,0.24,1.56,0.24
		c0.13,0,0.2,0.16,0.2,0.49c0,1.11-0.2,2.05-0.59,2.83c-0.78-0.07-2.02-0.16-3.71-0.29c-1.69-0.13-3.27-0.23-4.74-0.29
		c-1.46-0.06-2.78-0.1-3.96-0.1c-1.63,0-3.89,0.1-6.79,0.29c-2.9,0.2-4.74,0.33-5.52,0.39c-0.13-0.26-0.2-0.55-0.2-0.88
		c0-0.33,0.05-0.68,0.15-1.07s0.18-0.72,0.24-0.98c0.07-0.26,0.13-0.39,0.2-0.39c1.17,0,2.8-0.31,4.88-0.93
		c2.08-0.62,3.68-1.64,4.79-3.08c0.85-1.11,1.59-3.48,2.25-7.13l7.42-38.38c0.39-2.08,0.59-4,0.59-5.76c0-0.98-0.91-1.74-2.73-2.29
		c-1.82-0.55-3.29-0.83-4.39-0.83c-0.2,0-0.29-0.26-0.29-0.78c0-1.37,0.23-2.21,0.68-2.54C233.13,22.34,237.17,22.5,238.41,22.5z"/>
	<path class="st0" d="M309.4,65.86c-3.39,0-6.15,0.03-8.3,0.1c-0.2,0-0.5,0.07-0.93,0.2c-0.42,0.13-0.67,0.23-0.73,0.29l-4.39,7.42
		c-2.15,3.19-3.22,5.34-3.22,6.45c0,1.11,0.83,1.95,2.49,2.54s2.94,0.88,3.86,0.88c0.13,0,0.2,0.13,0.2,0.39
		c0,1.3-0.16,2.28-0.49,2.93c-0.78-0.07-2.21-0.2-4.3-0.39c-2.08-0.2-3.91-0.29-5.47-0.29c-1.63,0-3.73,0.1-6.3,0.29
		s-4.31,0.33-5.22,0.39c-0.06-0.13-0.1-0.39-0.1-0.78c0-1.69,0.16-2.54,0.49-2.54c0.65,0,2.05-0.47,4.2-1.42
		c2.15-0.94,3.52-1.81,4.1-2.59c0.59-0.85,1.86-2.9,3.81-6.15l26.56-44.14c0.06-0.13,0.39-0.68,0.98-1.66s1.04-1.71,1.37-2.2
		c0.33-0.49,0.76-1.11,1.32-1.86c0.55-0.75,1.06-1.3,1.51-1.66c0.45-0.36,0.88-0.54,1.27-0.54c0.59,0,0.98,0.26,1.17,0.78
		l10.25,50.59c0.26,1.69,0.72,4.14,1.37,7.32c0.2,1.04,1.04,1.89,2.54,2.54c1.5,0.65,2.6,0.98,3.32,0.98c0.13,0,0.2,0.16,0.2,0.49
		c0,1.3-0.23,2.25-0.68,2.83c-0.2,0-1.84-0.11-4.93-0.34c-3.09-0.23-5.42-0.34-6.98-0.34c-1.24,0-5.73,0.23-13.48,0.68
		c-0.07-0.07-0.1-0.29-0.1-0.68c0-1.76,0.26-2.64,0.78-2.64c0.52,0,1.37-0.28,2.54-0.83c1.17-0.55,1.99-1.09,2.44-1.61
		c0.33-0.45,0.49-0.91,0.49-1.37c0-0.59-0.72-5.08-2.15-13.48c0-0.26-0.2-0.39-0.59-0.39C315.95,65.92,312.98,65.86,309.4,65.86z
		 M310.58,60c2.47,0,4.65-0.06,6.54-0.2c0.26,0,0.39-0.16,0.39-0.49l-3.13-17.38l-10.55,17.38c-0.07,0.07-0.08,0.15-0.05,0.24
		c0.03,0.1,0.08,0.15,0.15,0.15C305.69,59.9,307.9,60,310.58,60z"/>
	<path class="st0" d="M407.86,33.34l5.27-11.33c2.08,0.26,5.18,0.39,9.28,0.39c1.37,0,4.52-0.13,9.47-0.39
		c0,2.21-0.23,3.32-0.68,3.32c-2.15,0-3.71,0.55-4.69,1.66c-1.11,1.3-1.89,4.14-2.34,8.5c-2.21,20.12-3.55,33.4-4,39.84
		c-0.26,2.41-0.39,3.97-0.39,4.69c0,0.91,0.41,1.68,1.22,2.29c0.81,0.62,1.56,1.01,2.25,1.17c0.68,0.16,1.25,0.24,1.71,0.24
		c0.13,0,0.2,0.16,0.2,0.49c0,1.3-0.23,2.25-0.68,2.83c-0.33,0-1.94-0.11-4.83-0.34c-2.9-0.23-5.13-0.34-6.69-0.34
		c-1.63,0-4.1,0.11-7.42,0.34s-5.24,0.34-5.76,0.34c-0.13-0.26-0.2-0.62-0.2-1.07c0-0.33,0.05-0.68,0.15-1.07s0.2-0.68,0.29-0.88
		s0.18-0.29,0.24-0.29c0.65,0,1.72-0.29,3.22-0.88c1.5-0.59,2.47-1.2,2.93-1.86c0.33-0.59,0.57-1.04,0.73-1.37
		c0.16-0.33,0.34-1.04,0.54-2.15c0.2-1.11,0.39-2.77,0.59-4.98l2.64-25.1c0.13-1.17,0.2-2.73,0.2-4.69c0-0.72-0.13-1.07-0.39-1.07
		c-0.13,0-0.33,0.23-0.59,0.68l-22.46,41.31c-0.33,0.59-0.93,1.27-1.81,2.05s-1.68,1.17-2.39,1.17c-0.13,0-0.39-0.07-0.78-0.2
		l-9.08-46.88c-0.07-0.26-0.16-0.39-0.29-0.39c-0.13,0-0.26,0.16-0.39,0.49c-5.86,21.03-9.21,33.59-10.06,37.7
		c-0.2,0.98-0.29,1.73-0.29,2.25c0,0.85,1.17,1.71,3.52,2.59s3.87,1.32,4.59,1.32c0.13,0,0.2,0.2,0.2,0.59
		c0,1.24-0.2,2.15-0.59,2.73c-0.78-0.07-2.04-0.16-3.76-0.29c-1.73-0.13-3.32-0.23-4.79-0.29c-1.46-0.06-2.78-0.1-3.96-0.1
		c-1.63,0-3.87,0.1-6.74,0.29c-2.87,0.2-4.69,0.33-5.47,0.39c-0.13-0.26-0.2-0.55-0.2-0.88c0-0.33,0.05-0.68,0.15-1.07
		s0.2-0.72,0.29-0.98c0.1-0.26,0.18-0.39,0.24-0.39c1.11,0,2.98-0.47,5.62-1.42c2.64-0.94,4.15-2.1,4.54-3.47
		c0.13-0.52,0.33-1.2,0.59-2.05l11.82-45.41c0.45-2.08,0.68-3.25,0.68-3.52c0-0.85-0.81-1.48-2.44-1.9c-1.63-0.42-2.96-0.63-4-0.63
		c-0.07,0-0.1-0.23-0.1-0.68c0-1.24,0.26-2.11,0.78-2.64c5.47,0.26,8.92,0.39,10.35,0.39c1.5,0,4.72-0.13,9.67-0.39
		c0.2,1.89,0.67,4.9,1.42,9.03c0.75,4.14,1.79,9.77,3.13,16.89c1.33,7.13,2.36,12.55,3.08,16.26c0,0.07,0.06,0.1,0.2,0.1
		c0.13,0,0.2-0.06,0.2-0.2L407.86,33.34z"/>
</g>
</svg>
